<svg width="64" height="64" viewBox="0 0 64 64" fill="none" xmlns="http://www.w3.org/2000/svg">
  <defs>
    <linearGradient id="bg" x1="8" y1="6" x2="56" y2="58" gradientUnits="userSpaceOnUse">
      <stop stop-color="#171411"/>
      <stop offset="1" stop-color="#090807"/>
    </linearGradient>
    <linearGradient id="gold" x1="18" y1="14" x2="46" y2="50" gradientUnits="userSpaceOnUse">
      <stop stop-color="#E7D2A2"/>
      <stop offset="0.45" stop-color="#C9A66C"/>
      <stop offset="1" stop-color="#8E6B39"/>
    </linearGradient>
    <linearGradient id="goldSoft" x1="14" y1="12" x2="50" y2="52" gradientUnits="userSpaceOnUse">
      <stop stop-color="rgba(231,210,162,0.9)"/>
      <stop offset="1" stop-color="rgba(142,107,57,0.85)"/>
    </linearGradient>
    <filter id="shadow" x="0" y="0" width="64" height="64" filterUnits="userSpaceOnUse" color-interpolation-filters="sRGB">
      <feDropShadow dx="0" dy="2" stdDeviation="3" flood-color="#000000" flood-opacity="0.35"/>
    </filter>
  </defs>

  <rect x="4" y="4" width="56" height="56" rx="16" fill="url(#bg)"/>
  <rect x="6.5" y="6.5" width="51" height="51" rx="13.5" stroke="rgba(201,166,108,0.28)"/>
  <path d="M18 15.5H47" stroke="url(#gold)" stroke-width="1.6" stroke-linecap="round" opacity="0.95"/>
  <path d="M18 48.5H47" stroke="url(#gold)" stroke-width="1.6" stroke-linecap="round" opacity="0.75"/>

  <g filter="url(#shadow)">
    <path d="M22 18.5H43" stroke="url(#gold)" stroke-width="4.2" stroke-linecap="round"/>
    <path d="M22 32H38.5" stroke="url(#gold)" stroke-width="4.2" stroke-linecap="round"/>
    <path d="M22 45.5H43" stroke="url(#gold)" stroke-width="4.2" stroke-linecap="round"/>
    <path d="M23 18V46" stroke="url(#gold)" stroke-width="4.6" stroke-linecap="round"/>
  </g>

  <path d="M14 14C20 10 27 8 32 8C37 8 44 10 50 14" stroke="url(#goldSoft)" stroke-width="1.1" opacity="0.45"/>
</svg>
